<svg width="706" height="338" viewBox="0 0 706 338" fill="none" xmlns="http://www.w3.org/2000/svg">
<rect width="705.878" height="67.2265" fill="#FFFFFF"/>
<rect y="270.773" width="705.878" height="67.2265" fill="#FFFFFF"/>
<path d="M58.9397 222.874H41.0282L26.7908 178.561H17.1461V222.874H0V114.822H27.5562C47.458 114.822 55.4186 124.383 55.4186 146.691C55.4186 160.046 52.663 169.607 42.7122 174.919L58.9397 222.874ZM38.2725 146.691C38.2725 137.738 36.8947 130.15 27.7093 130.15H17.1461V163.233H27.7093C36.8947 163.233 38.2725 155.645 38.2725 146.691Z" fill="#FFFFFF"/>
<path d="M129.327 196.317C129.327 204.512 126.571 211.341 121.825 216.197C116.62 221.509 109.731 224.088 101.617 224.088C93.5034 224.088 86.4613 221.509 81.2562 216.197C76.5104 211.341 73.7548 204.512 73.7548 196.317V114.822H90.9009V197.227C90.9009 204.967 95.7998 208.761 101.617 208.761C107.435 208.761 112.18 204.967 112.18 197.227V114.822H129.327V196.317Z" fill="#FFFFFF"/>
<path d="M195.569 222.874H149.795V114.822H195.569V130.15H166.941V160.805H191.589V176.133H166.941V207.547H195.569V222.874Z" fill="#FFFFFF"/>
<path d="M266.218 192.978C266.218 204.056 264.687 211.492 259.176 216.804C254.736 221.053 247.541 223.937 237.896 223.937C228.405 223.937 221.362 221.357 216.77 216.804C211.565 211.644 209.728 204.967 209.728 193.585H226.874C226.874 199.352 227.486 202.994 229.935 205.726C231.466 207.395 234.069 208.609 237.896 208.609C241.876 208.609 244.479 207.547 246.163 205.574C248.459 202.994 249.072 199.352 249.072 193.585C249.072 182.051 247.235 179.168 238.815 175.829L225.802 170.518C214.78 165.965 210.646 160.046 210.646 143.353C210.646 133.64 213.555 125.749 219.525 120.437C224.271 116.34 230.395 113.912 238.202 113.912C246.928 113.912 253.358 116.188 257.798 120.437C263.462 125.901 265.452 133.64 265.452 143.96H248.306C248.306 139.104 248 135.31 245.704 132.426C244.173 130.453 241.723 129.239 238.049 129.239C234.528 129.239 232.385 130.453 230.701 132.274C228.711 134.551 227.792 138.193 227.792 142.898C227.792 151.7 229.17 154.431 236.824 157.466L249.684 162.626C262.697 167.938 266.218 174.767 266.218 192.978Z" fill="#FFFFFF"/>
<path d="M377.467 114.822L353.431 222.874H335.673L311.791 114.822H330.621L344.552 196.772L358.636 114.822H377.467Z" fill="#FFFFFF"/>
<path d="M436.027 222.874H390.253V114.822H436.027V130.15H407.399V160.805H432.047V176.133H407.399V207.547H436.027V222.874Z" fill="#FFFFFF"/>
<path d="M512.953 222.874H495.041L480.804 178.561H471.159V222.874H454.013V114.822H481.569C501.471 114.822 509.431 124.383 509.431 146.691C509.431 160.046 506.676 169.607 496.725 174.919L512.953 222.874ZM492.285 146.691C492.285 137.738 490.908 130.15 481.722 130.15H471.159V163.233H481.722C490.908 163.233 492.285 155.645 492.285 146.691Z" fill="#FFFFFF"/>
<path d="M574.058 130.15H555.687V222.874H538.541V130.15H520.324V114.822H574.058V130.15Z" fill="#FFFFFF"/>
<path d="M635.23 222.874H589.456V114.822H635.23V130.15H606.602V160.805H631.249V176.133H606.602V207.547H635.23V222.874Z" fill="#FFFFFF"/>
<path d="M705.878 192.978C705.878 204.056 704.348 211.492 698.836 216.804C694.397 221.053 687.201 223.937 677.557 223.937C668.065 223.937 661.023 221.357 656.43 216.804C651.225 211.644 649.388 204.967 649.388 193.585H666.534C666.534 199.352 667.147 202.994 669.596 205.726C671.127 207.395 673.73 208.609 677.557 208.609C681.537 208.609 684.14 207.547 685.824 205.574C688.12 202.994 688.732 199.352 688.732 193.585C688.732 182.051 686.895 179.168 678.475 175.829L665.463 170.518C654.44 165.965 650.307 160.046 650.307 143.353C650.307 133.64 653.215 125.749 659.186 120.437C663.932 116.34 670.055 113.912 677.863 113.912C686.589 113.912 693.019 116.188 697.458 120.437C703.123 125.901 705.113 133.64 705.113 143.96H687.967C687.967 139.104 687.661 135.31 685.364 132.426C683.833 130.453 681.384 129.239 677.71 129.239C674.189 129.239 672.046 130.453 670.362 132.274C668.371 134.551 667.453 138.193 667.453 142.898C667.453 151.7 668.831 154.431 676.485 157.466L689.345 162.626C702.357 167.938 705.878 174.767 705.878 192.978Z" fill="#FFFFFF"/>
</svg>
